<?xml version="1.0" encoding="utf-8"?>
<!-- Generator: Adobe Illustrator 27.3.1, SVG Export Plug-In . SVG Version: 6.00 Build 0)  -->
<svg version="1.1" id="Layer_1" xmlns="http://www.w3.org/2000/svg" xmlns:xlink="http://www.w3.org/1999/xlink" x="0px" y="0px"
	 viewBox="0 0 700 700" style="enable-background:new 0 0 700 700;" xml:space="preserve">
<style type="text/css">
	.st0{fill:none;stroke:#000000;stroke-width:2.7314;stroke-miterlimit:10;}
	.st1{fill:url(#SVGID_1_);}
	.st2{fill:#FFFFFF;stroke:#102771;stroke-width:5.4628;stroke-miterlimit:10;}
	.st3{fill:#102771;stroke:#0D2051;stroke-width:5.4628;stroke-miterlimit:10;}
	.st4{fill:none;stroke:#009D47;stroke-width:3.6418;stroke-miterlimit:10;}
	.st5{fill:#102771;stroke:#000000;stroke-width:3.6418;stroke-miterlimit:10;}
	.st6{fill:#009D47;stroke:#000000;stroke-width:3.6418;stroke-miterlimit:10;}
	.st7{fill:#163072;stroke:#000000;stroke-width:5.4628;stroke-miterlimit:10;}
	.st8{fill:#FFFFFF;}
	.st9{opacity:0.5;fill:#B9BDD4;}
	.st10{fill:none;stroke:#0D2051;stroke-width:5.4628;stroke-miterlimit:10;}
	.st11{opacity:0.5;fill:#6E7CA7;}
	.st12{fill:#1A7FD3;}
	.st13{fill:#009D47;}
	.st14{fill:#019D47;}
	.st15{fill:#F7FDFB;}
</style>
<g>
	<path class="st0" d="M564.5,383.5"/>
	<linearGradient id="SVGID_1_" gradientUnits="userSpaceOnUse" x1="352.4528" y1="645.6572" x2="352.4528" y2="97.6938">
		<stop  offset="0" style="stop-color:#E8458B"/>
		<stop  offset="0.3496" style="stop-color:#903775"/>
		<stop  offset="1" style="stop-color:#363553"/>
	</linearGradient>
	<circle class="st1" cx="352.5" cy="371.7" r="274"/>
	<path class="st2" d="M462.6,490.8c0,0,1.3-36.1-8.9-34c-5.1,1-6.2,1-5.9,0.8c0.2-0.3,1.7-0.8,1.7-0.8c-12,3.1-19.6,4.8-19.6,4.8
		l1.5,34L462.6,490.8z"/>
	<path class="st2" d="M237.5,520.4h-4.3c0,0-4.9-4.7-4.4-45.7c0,0,4.4-7.8,42.1-4.4v49L237.5,520.4z"/>
	<path class="st2" d="M463,383.8c9.4,71.6-40.3,124.5-120.5,129.8c-76.1,5-124.2-53.1-120.5-129.8c2.8-60.1,46.1-103.2,120.5-102.1
		C416.4,282.8,455.1,323.7,463,383.8z"/>
	<path class="st3" d="M451.9,393.6c8.5,55.8-36.4,97-108.9,101.1c-68.7,3.9-112.2-41.4-108.9-101.1c2.6-46.9,41.6-80.4,108.9-79.6
		C409.8,314.8,444.8,346.7,451.9,393.6z"/>
	<path class="st2" d="M231.4,448.1c0,0-17.4,8.5-26.3,0c-10.3-25.1-19.1-35.8,0-75.8c0,0,6.4-1.4,15,0c-1.5,14,2.3,66.9,7.3,70.9
		L231.4,448.1z"/>
	<path class="st2" d="M457.5,441.9c0,0,17.9,7.4,26.3-1.7c8.7-25.7,16.7-36.9-4.8-75.6c0,0-6.5-1-15,1c2.4,13.9,2,66.9-2.8,71.2
		L457.5,441.9z"/>
	<path class="st0" d="M523.7,456.6"/>
	<path class="st2" d="M268.4,331.8C262.3,319.2,251,314,251,314"/>
	<path class="st2" d="M407.8,329.7c4.4-13,17.2-21.3,17.2-21.3"/>
	<path class="st4" d="M331.6,279c3.6-21.2-16-49.7-16-49.7c-15-16.1-28.1-11-33.1-6.6c-5.1,4.4-10.5,11.1-10.5,11.1
		c13.3,7.9,31.1,7.6,35.3,5.1c4.1-2.5,7.3-6.4,7.3-6.4"/>
	<path class="st4" d="M345.5,200.7c-10-1.7-22.2,2.9-26.9,9.1c-4.7,6.2-5.2,8.7-5.2,8.7s2.7,7,7,6.7c4.2-0.2,18.5-7.8,22.9-12.4
		c4.5-4.6,9.7-9.5,9.7-9.5L345.5,200.7z"/>
	<polygon class="st5" points="523.7,309.4 543.6,443.6 552.8,441.8 523.7,282.7 518.6,282.7 	"/>
	<circle class="st6" cx="520.2" cy="276.5" r="5.2"/>
	<path class="st7" d="M529.1,311.2c12.3-17.5,11-16.5,32.1-21.1c17.6-3.8,29.2,15.9,59.4,14.7c30.2-1.2,39.1-7.1,39.1-7.1l13.2,91
		c-50-22.6-103.5-15.6-121.6,9.1c-3,4.1-3.9,7.9-3.9,7.9L529.1,311.2z"/>
	<polygon class="st8" points="475.1,244.3 475.5,248.3 479.3,246.7 476,249.1 479.3,251.6 475.5,249.9 475.1,254 474.6,249.9 
		470.9,251.6 474.2,249.1 470.9,246.7 474.6,248.3 	"/>
	<polygon class="st8" points="515,185.9 515.4,190 519.2,188.3 515.9,190.7 519.2,193.2 515.4,191.5 515,195.6 514.5,191.5 
		510.8,193.2 514.1,190.7 510.8,188.3 514.5,190 	"/>
	<polygon class="st8" points="291.8,182.6 292.2,186.7 296,185.1 292.7,187.5 296,190 292.2,188.3 291.8,192.4 291.3,188.3 
		287.6,190 290.9,187.5 287.6,185.1 291.3,186.7 	"/>
	<polygon class="st8" points="221.8,154.3 222.1,157.3 225,156.1 222.5,157.9 225,159.8 222.1,158.5 221.8,161.6 221.5,158.5 
		218.6,159.8 221.1,157.9 218.6,156.1 221.5,157.3 	"/>
	<polygon class="st8" points="213.4,220.2 212.5,218.7 210.7,219.1 212.2,218.2 211.8,216.5 212.8,218 214.5,217.6 213,218.5 	"/>
	<polygon class="st8" points="429.6,197.5 428.7,196 427,196.4 428.5,195.5 428.1,193.7 429,195.2 430.8,194.8 429.2,195.8 	"/>
	<polygon class="st8" points="391,121.8 390.1,120.3 388.3,120.7 389.9,119.8 389.4,118 390.4,119.6 392.1,119.2 390.6,120.1 	"/>
	<polygon class="st8" points="168.7,273.2 167.7,271.6 166,272.1 167.5,271.1 167.1,269.4 168,270.9 169.8,270.5 168.2,271.4 	"/>
	<polygon class="st8" points="332.8,153.5 331.9,152 330.1,152.4 331.7,151.5 331.2,149.7 332.2,151.3 333.9,150.8 332.4,151.8 	"/>
	<path class="st2" d="M460.2,549.7c29.5,7.5,61.7,0.1,71.9-4.9s28-24.5,28-24.5l-23.5-49.2L510.3,484c0,0-58.6,25.8-80.5-2.7
		c-45.1,40.6-101.5,33.1-101.5,33.1c-34.3-0.7-57.5-19-57.5-19c-46.2,23-63.1,79.5-63.1,79.5c-4,9.4-7,24.7-7,24.7
		c43.6,27.4,77.5,36,77.5,36c46,12.7,93.6,9.9,93.6,9.9c68.8-4.4,102.7-30.6,102.7-30.6s-2.8-52.4-22.4-79.7"/>
	<path class="st2" d="M246.1,516.1"/>
	<path class="st9" d="M211.3,572.5C334,645,468.5,596.3,469,594.5l2.7,19.4c-49,31.4-128.9,32-128.2,28.5
		c-73.3-2.8-119.6-33-119.6-33l-20.3-10.8L211.3,572.5z"/>
	<path class="st2" d="M586.3,481.3c0,20.2-13,42-29.1,42s-31.8-21.8-31.8-42s15.7-36.5,31.8-36.5S586.3,461.1,586.3,481.3z"/>
	<path class="st2" d="M199.4,565c20.2,0,42,13,42,29.1s-21.8,31.8-42,31.8s-36.5-15.7-36.5-31.8S179.2,565,199.4,565z"/>
	<g>
		<path class="st10" d="M281.2,541.5c-11.4,23.5-6.1,59.7-6.1,59.7h143.2c8.1-29.2-4-61.1-4-61.1L281.2,541.5z"/>
		<path class="st3" d="M289.8,558.4c-10,15.7-5.3,40-5.3,40h124.7c7-19.6-3.5-40.9-3.5-40.9L289.8,558.4z"/>
	</g>
	<path class="st11" d="M426.5,376.3c-17.3-29.6-47.4-40.2-75.2-34.7c-27.7,5.5,13.4,20.6,18.7,22s28.7,20.3,33.2,24.5
		c4.4,4.2,19,14.8,25.1,17.7s13.4-2.4,9-12.2L426.5,376.3z"/>
	<path class="st11" d="M334.8,349.4c0,4.6-7.4,8.4-12,8.4s-10.8-1.1-10.8-5.7s6.2-11.1,10.8-11.1S334.8,344.8,334.8,349.4z"/>
	<circle class="st12" cx="338.9" cy="360.7" r="2.9"/>
	<path class="st13" d="M356.6,584c-0.1-0.3-0.2-0.5-0.3-0.8c0,0,0,0,0,0c-0.1-0.2-0.1-0.4-0.2-0.5c0,0,0,0,0,0
		c0-0.1-0.1-0.1-0.1-0.2c0,0,0,0,0,0c0-0.1,0-0.1-0.1-0.2c0,0,0,0,0-0.1c0-0.1-0.1-0.1-0.1-0.2c0,0,0,0,0,0l0,0
		c0-0.1-0.1-0.2-0.1-0.3c0,0,0,0,0-0.1c-0.1-0.2-0.1-0.3-0.2-0.5c0,0,0,0,0-0.1c-0.1-0.3-0.2-0.6-0.4-0.9c0,0,0,0,0-0.1
		c0,0,0-0.1,0-0.1c0,0,0,0,0-0.1c0,0,0-0.1,0-0.1c0,0,0,0,0,0c0,0,0-0.1-0.1-0.1c0,0,0,0,0,0l0,0c0,0,0-0.1-0.1-0.1c0,0,0,0,0,0l0,0
		c-0.1-0.2-0.2-0.5-0.3-0.7c0,0,0,0,0-0.1c0,0,0-0.1,0-0.1c0,0,0,0,0-0.1c0-0.1-0.1-0.2-0.1-0.3c0,0,0,0,0-0.1
		c0-0.1-0.1-0.2-0.1-0.3c0.1,0,0.1,0,0.2,0c0.1,0,0.3,0,0.4,0c0.2,0,0.4,0,0.6,0c0.1,0,0.2,0,0.3,0c0,0,0.1,0,0.1,0
		c0.1,0,0.2,0,0.4,0c0.1,0,0.2,0,0.3,0c0,0,0.1,0,0.1,0c0,0,0.1,0,0.1,0c0.1,0,0.2,0,0.3,0c0.1,0,0.2,0,0.3,0c0.1,0,0.2,0,0.2,0
		c0.1,0,0.1,0,0.2,0c0,0,0.1,0,0.1,0c0.1,0,0.1,0,0.2,0c0.1,0,0.2,0,0.3,0c0.1,0,0.2,0,0.3,0c0.1,0,0.1,0,0.2,0c0.1,0,0.1,0,0.2,0
		c0.1,0,0.1,0,0.2,0c0,0,0,0,0,0c0,0,0,0,0,0c0.1,0,0.2,0,0.3,0c0.1,0,0.2,0,0.2,0c0.1,0,0.2,0,0.3,0c0,0,0,0,0.1,0
		c0.1,0,0.1,0,0.2,0l0,0l0,0c0.1,0,0.1,0,0.2,0c0,0,0,0,0.1,0c0,0,0.1,0,0.1,0c0,0,0,0,0.1,0c0,0,0.1,0,0.1,0c0,0,0,0,0.1,0
		c0,0,0.1,0,0.1,0c0,0,0,0,0.1,0c0,0,0.1,0,0.1,0l0,0l0,0c0.1,0,0.2,0,0.4,0.1c0,0,0.1,0,0.1,0c0.1,0,0.2,0,0.3,0.1c0,0,0,0,0.1,0
		c0,0,0,0,0,0c0,0,0,0,0.1,0c0.1,0,0.2,0.1,0.3,0.1c0.1,0,0.2,0.1,0.3,0.1c0,0,0,0,0,0c0,0,0,0,0,0c0,0,0,0,0,0l0,0
		c0.1,0.1,0.2,0.2,0.3,0.3c0,0,0,0,0,0l0,0l0,0c0,0,0,0,0,0c0,0,0,0,0,0c0,0,0,0,0.1,0.1c0,0,0,0,0,0l0,0l0,0c0,0,0,0,0,0
		c0,0,0,0,0,0c0.1,0.2,0.2,0.4,0.3,0.6c0,0.1,0.1,0.2,0.1,0.3c0,0,0,0,0,0c0,0,0,0,0,0c0,0,0,0,0,0l0,0c0,0.1,0,0.1,0,0.2
		c0,0,0,0,0,0c0,0.1,0.1,0.3,0.1,0.4c0,0,0,0,0,0l0,0c0,0.1,0.1,0.2,0.1,0.3c0,0,0,0,0,0l0,0c0.1,0.2,0.1,0.5,0.2,0.7
		c0.1,0.4,0.1,0.7,0.2,1.1c0,0.2,0.1,0.5,0.1,0.7c0,0.1,0,0.3,0.1,0.4c0,0,0,0,0,0c0,0.1,0,0.3,0.1,0.4c0,0.1,0,0.2,0,0.4
		c0,0.1,0,0.3,0,0.4c0,0,0,0,0,0.1c0,0.3,0,0.6,0.1,0.8c0,0,0,0,0,0.1c0,0,0,0,0,0c-0.1,0.1,0,0.2,0,0.2c0,0.2,0,0.4,0,0.6
		c0,0-0.1,0.1-0.1,0.1c-0.2,0.2-0.5,0.3-0.7,0.5c-0.8,0.4-1.5,0.8-2.3,1.2c-1.1,0.6-2.2,1.1-3.3,1.7c-0.5,0.3-1.1,0.5-1.6,0.7
		c-0.1,0-0.2,0.1-0.3,0.1c0.1-0.2,0.2-0.3,0.3-0.5c0.2-0.4,0.3-0.8,0.4-1.2c0-0.2,0.1-0.4,0.1-0.6c0-0.2,0-0.4,0.1-0.5
		c0-0.3,0.1-0.6,0.1-0.9c0-0.4,0-0.7,0-1.1c0-0.2-0.1-0.4-0.1-0.6c0,0,0,0,0,0c0,0,0-0.1,0-0.1c0,0,0,0,0,0c0,0,0,0,0-0.1
		c0,0,0,0,0,0c0,0,0-0.1,0-0.1c0,0,0,0,0,0c0-0.1,0-0.1-0.1-0.2c0,0,0,0,0,0l0,0c0,0,0,0,0-0.1c0,0,0,0,0,0c0,0,0,0,0-0.1
		c0,0,0,0,0,0C356.8,584.8,356.7,584.4,356.6,584C356.6,584,356.6,584,356.6,584z"/>
	<path class="st14" d="M340.4,579.2C340.3,579.2,340.3,579.2,340.4,579.2c-0.1,0-0.1,0-0.2,0c-0.1,0-0.2,0-0.4,0c-0.1,0-0.2,0-0.3,0
		c0,0-0.1,0-0.1,0.1c0,0,0,0,0,0c0,0,0,0,0,0c0,0,0,0,0,0c0,0.1-0.1,0.1-0.1,0.2c0,0,0,0,0,0l0,0c0,0,0,0,0,0c0,0,0,0,0,0l0,0
		c-0.1,0.2-0.2,0.4-0.3,0.6c0,0,0,0,0,0.1l0,0c0,0,0,0,0,0c0,0.1-0.1,0.2-0.1,0.4c0,0,0,0.1,0,0.1c0,0,0,0,0,0c0,0.1,0,0.1,0,0.2
		c0,0,0,0,0,0c0,0,0,0,0,0c0,0,0,0,0,0c0,0.1-0.1,0.3-0.1,0.4c-0.1,0.2-0.1,0.5-0.2,0.7c0,0.1-0.1,0.3-0.1,0.4c0,0,0,0.1,0,0.1
		c0,0,0,0,0,0c0,0.2-0.1,0.4-0.1,0.6c0,0.1,0,0.3,0,0.4c0,0-0.1,0.1-0.2,0c-0.1,0-0.1,0-0.2,0c0,0,0,0,0,0c-0.1,0-0.1,0-0.2,0
		c-0.1,0-0.2,0-0.3,0c-0.4,0-0.7,0-1.1,0c-0.1,0-0.1,0-0.2,0c-0.1,0-0.1,0-0.2,0c0,0-0.1,0-0.1,0c-0.1,0-0.1,0-0.2,0
		c0,0-0.1,0-0.1,0c0,0-0.1,0-0.1,0c0,0-0.1,0-0.1,0c0,0-0.1,0-0.1,0c0,0,0,0-0.1,0c0,0-0.1,0-0.1,0c0,0,0,0-0.1,0c0,0,0,0,0,0
		c0,0-0.1,0-0.1,0c0,0-0.1,0-0.1,0c0,0-0.1,0-0.1,0c-0.1,0-0.2-0.1-0.3-0.1c0,0,0,0-0.1,0c-0.1,0-0.2-0.1-0.3-0.1c0,0,0,0,0,0
		c0,0,0,0,0,0c0,0,0,0-0.1,0c-0.1-0.1-0.2-0.1-0.3-0.2c0,0,0,0,0,0l0,0c0,0,0,0,0,0c0,0,0,0,0,0l0,0c-0.1-0.1-0.1-0.1-0.2-0.2
		c0,0,0,0,0,0l0,0c0,0,0,0,0,0c0,0,0,0,0,0l0,0c0,0,0,0,0,0c0,0,0,0,0,0l0,0c0,0,0,0,0,0c0,0,0,0,0,0l0,0c0,0,0,0,0,0c0,0,0,0,0,0
		c0,0,0,0,0,0c0,0,0,0,0,0c-0.3-0.3-0.5-0.7-0.7-1.1c-0.1-0.1-0.1-0.3-0.2-0.4c0,0,0,0,0,0c0,0,0-0.1,0-0.1c0,0,0,0,0,0
		c0,0,0,0,0-0.1c0,0,0,0,0,0c0,0,0-0.1,0-0.1c0,0,0,0,0,0l0,0c0-0.1,0-0.2-0.1-0.3c0,0,0,0,0,0c0-0.1,0-0.1,0-0.2c0,0,0-0.1,0-0.1
		c0,0,0-0.1,0-0.1c0,0,0.1-0.1,0-0.2c0-0.2,0.1-0.3,0.1-0.4c0.1-0.2,0.2-0.4,0.3-0.6c0.1-0.1,0.1-0.2,0.2-0.3c0,0,0,0,0,0l0,0
		c0,0,0,0,0,0l0,0c0.1-0.2,0.3-0.4,0.4-0.6c0,0,0,0,0,0c0,0,0,0,0,0s0,0,0,0l0,0c0.2-0.3,0.4-0.6,0.7-0.9c0,0,0,0,0,0c0,0,0,0,0,0
		c0,0,0,0,0,0c0.1-0.1,0.2-0.2,0.3-0.3c-0.1,0-0.1-0.1-0.2-0.1c0,0,0,0,0,0c0,0,0,0,0,0c0,0,0,0,0,0c-0.1-0.1-0.2-0.1-0.3-0.2
		c0,0,0,0,0,0c0,0,0,0,0,0c0,0,0,0,0,0c-0.1-0.1-0.2-0.1-0.3-0.2c0,0,0,0,0,0c0,0,0,0,0,0c0,0,0,0,0,0c-0.1-0.1-0.2-0.1-0.3-0.2
		c0,0,0,0,0,0c0,0,0,0,0,0c0,0,0,0,0,0c-0.1,0-0.1-0.1-0.2-0.1c0,0,0,0,0-0.1c0.2,0,0.3,0,0.5-0.1c0.2,0,0.4-0.1,0.7-0.1
		c0.2,0,0.4-0.1,0.7-0.1c0.3,0,0.6-0.1,0.8-0.1c0.1,0,0.2,0,0.3-0.1c0,0,0.1,0,0.2,0c0.3,0,0.6-0.1,0.8-0.1c0.3-0.1,0.7-0.1,1-0.2
		c0.3,0,0.6-0.1,0.8-0.1c0.3,0,0.6-0.1,0.9-0.2l0,0l0,0c0,0.1,0.1,0.2,0.1,0.3c0,0,0,0,0,0l0,0c0,0.1,0.1,0.2,0.1,0.4c0,0,0,0,0,0
		l0,0c0,0,0,0,0,0.1c0.1,0.1,0.1,0.2,0.2,0.4c0,0,0,0,0,0l0,0c0,0.1,0.1,0.2,0.1,0.4c0,0,0,0,0,0c0,0,0,0,0,0c0,0,0,0,0,0l0,0
		c0.1,0.1,0.1,0.2,0.2,0.4c0,0,0,0,0,0l0,0c0,0.1,0.1,0.2,0.1,0.4c0,0,0,0,0,0c0,0,0,0,0,0c0,0,0,0,0,0l0,0c0.1,0.1,0.1,0.2,0.2,0.4
		c0,0,0,0,0,0l0,0c0,0.1,0.1,0.2,0.1,0.4c0,0,0,0,0,0c0,0,0,0,0,0c0,0,0,0,0,0l0,0c0.1,0.2,0.2,0.5,0.3,0.7c0,0,0,0,0,0c0,0,0,0,0,0
		c0,0,0,0,0,0c0,0,0,0,0,0l0,0c0.1,0.2,0.2,0.5,0.3,0.7c0,0,0,0,0,0c0,0,0,0,0,0c0,0,0,0,0,0l0,0c0.1,0.2,0.1,0.3,0.2,0.5
		c0,0,0,0-0.1,0c-0.2-0.1-0.3-0.2-0.5-0.2c0,0,0,0-0.1,0c-0.1,0-0.1,0-0.2-0.1c0,0,0,0-0.1,0c0,0,0,0-0.1,0c0,0,0,0-0.1,0
		c0,0,0,0-0.1,0c0,0,0,0-0.1,0C340.5,579.2,340.4,579.2,340.4,579.2C340.4,579.2,340.4,579.2,340.4,579.2z"/>
	<path class="st13" d="M340.9,591.7C340.9,591.7,340.9,591.7,340.9,591.7c-0.1,0-0.1,0-0.2,0c0,0,0,0-0.1,0c0,0-0.1,0-0.1,0
		c0,0-0.1,0-0.1,0c0,0-0.1,0-0.1,0c0,0,0,0-0.1,0c0,0-0.1,0-0.1,0c0,0-0.1,0-0.1,0c0,0-0.1,0-0.1,0c0,0-0.1,0-0.1,0c0,0-0.1,0-0.1,0
		c0,0-0.1,0-0.1,0c0,0-0.1,0-0.1,0c0,0-0.1,0-0.1,0c0,0-0.1,0-0.1,0c-0.1,0-0.1,0-0.2,0c0,0,0,0,0,0c-0.1,0-0.1,0-0.2,0
		c0,0-0.1,0-0.1,0c-0.1,0-0.2,0-0.3,0c0,0,0,0-0.1,0c-0.1,0-0.2,0-0.3,0c-0.1,0-0.1,0-0.2,0c-0.1,0-0.2,0-0.2,0c-0.1,0-0.2,0-0.3,0
		c-0.1,0-0.1,0-0.2,0c-0.1,0-0.2,0-0.2,0c0,0-0.1,0-0.1-0.1c0,0,0,0,0,0c0,0,0,0,0,0c0,0,0,0-0.1-0.1c0,0,0,0,0,0l0,0l0,0
		c0,0,0,0,0,0c0,0,0,0,0,0c-0.1-0.1-0.2-0.3-0.3-0.4c0,0,0,0,0-0.1l0,0c0,0,0,0,0,0c0,0,0,0,0-0.1c0,0,0,0,0-0.1l0,0c0,0,0,0,0,0
		c0,0,0-0.1-0.1-0.1c0,0,0,0,0-0.1c0,0,0,0,0,0c0,0,0,0,0,0c0,0,0-0.1-0.1-0.1c0,0,0,0,0,0c0,0,0,0,0,0c0,0,0,0,0,0
		c0,0,0-0.1-0.1-0.1c0,0,0,0,0-0.1c0,0,0,0,0,0c0,0,0,0,0,0c-0.1-0.2-0.2-0.3-0.3-0.5c0,0,0,0,0,0c0,0,0,0,0,0c0,0,0,0,0,0
		c-0.1-0.1-0.1-0.2-0.2-0.3c0,0,0,0,0,0l0,0c0,0,0,0,0,0c-0.1-0.1-0.1-0.2-0.2-0.3c0,0,0,0,0-0.1l0,0c0,0,0,0,0,0
		c-0.1-0.2-0.2-0.3-0.3-0.5c0,0,0,0,0,0c0,0,0,0,0,0c0,0,0,0,0,0c0,0,0,0,0,0c0,0,0,0,0,0c0,0,0-0.1,0-0.1c0,0,0,0,0,0
		c-0.1-0.3-0.3-0.5-0.4-0.8c-0.1-0.1-0.1-0.3-0.2-0.4c0,0,0,0,0,0c-0.2-0.3-0.3-0.7-0.5-1c-0.1-0.1-0.1-0.2-0.2-0.4c0,0,0,0,0,0
		c-0.1-0.2-0.2-0.3-0.2-0.5c-0.1-0.2-0.2-0.4-0.3-0.6c0,0,0,0,0-0.1c-0.1-0.2-0.1-0.3-0.2-0.5c0,0,0,0,0-0.1c0-0.1-0.1-0.2-0.1-0.2
		c0-0.1,0-0.1,0-0.2c0,0,0,0,0,0l0,0c0.2,0.2,0.3,0.3,0.5,0.4c0.1,0,0.2,0.1,0.4,0.1c0,0,0.1,0,0.1,0c0,0,0,0,0.1,0
		c0.1,0,0.3,0.1,0.4,0.1c0.1,0,0.1,0,0.2,0c0,0,0,0,0.1,0c0,0,0,0,0.1,0c0,0,0.1,0,0.1,0c0,0,0.1,0,0.1,0l0,0l0,0
		c0.1,0,0.2,0,0.3,0.1l0,0l0,0c0.1,0,0.1,0,0.2,0c0,0,0,0,0.1,0c0,0,0.1,0,0.1,0c0,0,0,0,0.1,0c0.1,0,0.1,0,0.2,0c0,0,0,0,0.1,0
		c0.1,0,0.2,0,0.4,0c0.1,0,0.2,0,0.3,0c0.1,0,0.2,0,0.3,0c0.1,0,0.1,0,0.2,0c0.1,0,0.2,0,0.3,0c0.1,0,0.2,0,0.2,0c0.1,0,0.2,0,0.2,0
		c0,0,0.1,0,0.1,0c0,0,0,0,0.1,0c0,0,0,0,0.1,0c0.2-0.1,0.4-0.1,0.6-0.2c0,0,0,0,0.1,0c0.4-0.1,0.9-0.3,1.3-0.4
		c0.8-0.3,1.6-0.6,2.4-0.9c0.5-0.2,1-0.4,1.4-0.6c0.6-0.2,1.1-0.5,1.7-0.7c0.2-0.1,0.5-0.2,0.7-0.3c0,0,0,0,0.1,0c0,0.3,0,0.7,0,1
		c0,0.5,0,1.1-0.1,1.6c0,0.9-0.1,1.7-0.2,2.6c0,0.2,0,0.4-0.1,0.6c0,0,0,0,0,0.1c0,0.1,0,0.1,0,0.2c0,0,0,0,0,0.1
		c0,0.3-0.1,0.5-0.1,0.8c0,0.3-0.1,0.5-0.2,0.8c0,0,0,0,0,0c0,0.1-0.1,0.2-0.1,0.3c-0.1,0.3-0.2,0.5-0.4,0.7c0,0,0,0-0.1,0
		c0,0,0,0,0,0c0,0,0,0,0,0c0,0,0,0,0,0c-0.1,0.1-0.2,0.1-0.3,0.2c0,0,0,0,0,0c0,0,0,0,0,0c0,0,0,0,0,0c-0.1,0-0.2,0.1-0.3,0.1
		c0,0,0,0-0.1,0c-0.1,0.1-0.3,0.1-0.4,0.2c0,0,0,0-0.1,0c-0.1,0.1-0.3,0.1-0.4,0.2c0,0-0.1,0-0.1,0c-0.1,0-0.1,0-0.2,0.1
		c0,0-0.1,0-0.1,0c0,0,0,0,0,0c0,0-0.1,0-0.1,0c0,0-0.1,0-0.1,0c0,0-0.1,0-0.1,0c0,0,0,0,0,0c0,0-0.1,0-0.1,0c0,0,0,0,0,0
		c0,0-0.1,0-0.1,0c0,0,0,0,0,0c0,0-0.1,0-0.1,0c0,0,0,0-0.1,0c0,0-0.1,0-0.1,0c0,0,0,0,0,0c0,0-0.1,0-0.1,0c0,0,0,0,0,0
		c0,0-0.1,0-0.1,0c0,0,0,0,0,0c0,0-0.1,0-0.1,0c0,0,0,0,0,0c0,0-0.1,0-0.1,0c0,0,0,0,0,0c0,0-0.1,0-0.1,0c0,0,0,0,0,0
		c0,0-0.1,0-0.1,0c0,0,0,0-0.1,0c0,0-0.1,0-0.1,0C341.1,591.7,341,591.7,340.9,591.7C341,591.7,340.9,591.7,340.9,591.7z"/>
	<path class="st13" d="M343.5,563.3c0.1,0,0.1,0,0.2,0c0,0,0.1,0,0.1,0c0,0,0,0,0.1,0c0,0,0.1,0,0.1,0c0,0,0,0,0.1,0
		c0.1,0,0.2,0.1,0.3,0.1c0.1,0,0.2,0,0.3,0.1c0,0,0,0,0.1,0c0,0,0,0,0,0c0,0,0,0,0.1,0c0.1,0,0.1,0,0.2,0c0,0,0,0,0.1,0c0,0,0,0,0,0
		c0,0,0,0,0.1,0c0.2,0,0.3,0.1,0.5,0.1c0,0,0,0,0.1,0c0,0,0,0,0,0c0,0,0,0,0.1,0c0.1,0,0.2,0.1,0.2,0.1c0.2,0.1,0.4,0.1,0.7,0.2
		c0.1,0,0.2,0.1,0.3,0.1c0,0,0,0,0.1,0c0.1,0,0.1,0.1,0.2,0.1c0,0,0,0,0.1,0c0.1,0,0.2,0.1,0.3,0.1c0.3,0.1,0.6,0.2,0.9,0.3
		c0.5,0.2,0.9,0.3,1.4,0.5c0.5,0.2,0.9,0.3,1.4,0.5c0,0,0.1,0,0.1,0c0,0,0,0,0,0c0.1,0.1,0.3,0.1,0.4,0.2c0.2,0.1,0.4,0.2,0.6,0.3
		c0,0-0.1,0-0.1,0c0,0-0.1,0-0.1,0c0,0-0.1,0-0.1,0c-0.1,0-0.2,0.1-0.3,0.1c0,0-0.1,0-0.1,0c0,0,0,0-0.1,0c-0.2,0.1-0.4,0.2-0.5,0.3
		c0,0,0,0,0,0c0,0,0,0,0,0c0,0,0,0,0,0c0,0,0,0-0.1,0c0,0,0,0,0,0c0,0,0,0,0,0c0,0,0,0,0,0c0,0-0.1,0.1-0.1,0.1c0,0,0,0,0,0
		c0,0,0,0,0,0c0,0,0,0,0,0c0,0,0,0,0,0c0,0,0,0,0,0c0,0,0,0,0,0c0,0,0,0,0,0c0,0,0,0,0,0c0,0,0,0,0,0c0,0,0,0,0,0c0,0,0,0,0,0
		c0,0,0,0,0,0c0,0,0,0,0,0c0,0,0,0,0,0c0,0,0,0,0,0c-0.1,0-0.1,0.1-0.2,0.1c0,0,0,0,0,0c0,0,0,0,0,0c0,0,0,0,0,0
		c0,0-0.1,0.1-0.1,0.1c0,0,0,0,0,0l0,0c0,0,0,0,0,0c0,0,0,0,0,0c0,0,0,0,0,0c0,0,0,0,0,0l0,0c0,0,0,0,0,0c0,0,0,0,0,0
		c0,0-0.1,0-0.1,0.1c0,0,0,0,0,0c0,0,0,0,0,0c0,0,0,0,0,0c0,0-0.1,0-0.1,0.1c0,0,0,0,0,0c0,0,0,0,0,0c0,0,0,0,0,0
		c0,0-0.1,0.1-0.1,0.1c0,0,0,0,0,0c-0.1,0.1-0.1,0.1-0.2,0.2c0,0,0,0,0,0c0,0,0,0,0,0c0,0,0,0,0,0c-0.1,0.1-0.2,0.2-0.3,0.2
		c0,0,0,0,0,0c0,0,0,0,0,0c0,0,0,0,0,0c0,0,0,0,0,0c0,0,0,0,0,0c-0.1,0.1-0.2,0.2-0.3,0.3c0,0,0,0,0,0c0,0,0,0,0,0c0,0,0,0,0,0
		c0,0,0,0,0,0c0,0,0,0,0,0c-0.1,0.1-0.1,0.1-0.2,0.2c0,0,0,0,0,0c0,0,0,0,0,0c0,0,0,0,0,0c0,0.1-0.1,0.1-0.1,0.2c0,0,0,0,0,0l0,0
		c0,0,0,0,0,0c0,0,0,0,0,0.1c0,0,0,0,0,0l0,0c0,0,0,0,0,0.1c-0.1,0.3-0.3,0.5-0.4,0.8c-0.2,0.5-0.5,0.9-0.7,1.4c0,0,0,0.1,0,0.1
		c0,0,0,0,0,0.1c-0.1,0.1-0.1,0.3-0.2,0.4c0,0,0,0,0,0.1l0,0c0,0,0,0,0,0c0,0.1-0.1,0.2-0.1,0.3c0,0,0,0,0,0.1
		c0,0.1-0.1,0.2-0.1,0.3c0,0,0,0,0,0.1l0,0c0,0,0,0,0,0c0,0.1-0.1,0.2-0.1,0.2c0,0,0,0,0,0.1c0,0.1-0.1,0.1-0.1,0.2c0,0,0,0,0,0.1
		c0,0,0,0,0,0c0,0,0,0,0,0c0,0.1,0,0.1-0.1,0.2c0,0,0,0,0,0.1c0,0.1-0.1,0.1-0.1,0.2c0,0,0,0,0,0.1c-0.1,0.2-0.2,0.4-0.3,0.6
		c0,0,0,0,0,0.1c0,0.1,0,0.1-0.1,0.2c0,0,0,0,0,0.1l0,0c0,0,0,0,0,0c0,0.1-0.1,0.2-0.1,0.4c-0.1,0.1-0.1,0.3-0.2,0.4c0,0,0,0,0,0
		c0,0,0,0,0,0c0,0,0,0,0,0c0,0,0,0.1,0,0.1c0,0,0,0,0,0l0,0c0,0,0,0,0,0c0,0,0,0,0,0c0,0,0,0.1,0,0.1c0,0,0,0,0,0.1
		c-0.1,0.2-0.2,0.4-0.3,0.6c0,0,0,0,0,0c0,0,0,0,0,0c0,0,0,0,0,0c0,0.1-0.1,0.2-0.1,0.3c0,0,0,0,0,0c0,0,0,0,0,0c0,0,0,0,0,0
		c0,0,0,0.1,0,0.1c0,0,0,0,0,0c0,0,0,0,0,0c0,0,0,0,0,0c0,0-0.1-0.1-0.1-0.1c0,0,0,0,0,0c0,0,0,0,0,0c0,0,0,0,0,0c0,0,0,0,0,0
		c0,0,0,0,0,0c0,0,0,0,0,0c0,0,0,0,0,0c0,0,0,0,0,0c0,0,0,0,0,0c0,0,0,0,0,0c0,0,0,0,0,0c0,0,0,0,0,0c0,0,0,0,0,0c0,0,0,0,0,0
		c0,0,0,0,0,0c-0.2-0.2-0.4-0.4-0.6-0.6c0,0,0,0,0,0c0,0,0,0,0,0c0,0,0,0,0,0c0,0,0,0,0,0c0,0,0,0,0,0c0,0,0,0,0,0c0,0,0,0,0,0
		c-0.1-0.1-0.2-0.2-0.3-0.3c0,0,0,0,0,0l0,0c0,0,0,0,0,0c0,0,0,0,0,0l0,0c0,0,0,0,0,0c0,0,0,0,0,0c0,0,0,0,0,0c0,0,0,0,0,0
		c-0.1-0.1-0.1-0.1-0.2-0.2c0,0,0,0,0,0c0,0,0,0,0,0c0,0,0,0,0,0l0,0c0,0,0,0,0,0c0,0,0,0,0,0l0,0c0,0,0,0,0,0c0,0,0,0,0,0
		c0,0,0,0,0,0c0,0,0,0,0,0c0,0,0,0,0,0c0,0,0,0,0,0c-0.1-0.1-0.1-0.1-0.2-0.2c0,0,0,0,0,0l0,0c0,0,0,0,0,0c0,0,0,0,0,0l0,0
		c0,0,0,0,0,0c0,0,0,0,0,0c0,0,0,0,0,0c0,0,0,0,0,0c-0.1-0.1-0.1-0.1-0.2-0.2c0,0,0,0,0,0l0,0l0,0c0,0,0,0,0,0c0,0,0,0,0,0
		c0,0,0,0,0,0c0,0,0,0,0,0c0-0.1-0.1-0.1-0.1-0.2c0,0,0,0,0,0l0,0c0,0,0,0,0,0c0,0,0,0,0,0l0,0c0,0,0,0,0,0c0,0,0,0,0,0l0,0
		c0,0,0,0,0,0c0-0.1-0.1-0.1-0.1-0.2c0,0,0,0,0,0l0,0l0,0c0,0,0,0,0,0c0,0,0,0,0,0c0,0,0,0,0,0c0,0,0,0,0,0c0,0-0.1-0.1-0.1-0.1
		c0,0,0,0,0,0l0,0c0,0,0,0,0,0c0,0,0,0,0,0l0,0c0,0,0,0,0,0c0,0-0.1-0.1-0.1-0.1c0,0,0,0,0,0l0,0c0,0,0,0,0,0c0,0,0,0,0,0
		c0,0,0,0,0,0c0,0,0,0,0,0c0,0-0.1-0.1-0.1-0.1c0,0,0,0,0,0l0,0c0-0.1-0.1-0.1-0.1-0.2c0,0,0,0,0,0l0,0c0,0,0,0,0,0
		c0,0-0.1-0.1-0.1-0.1c0,0,0,0,0,0c0,0,0,0,0,0c0,0,0,0,0,0c0,0-0.1-0.1-0.1-0.1c0,0,0,0,0,0l0,0l0,0c0,0,0,0,0,0c0,0,0,0,0,0
		c0,0-0.1-0.1-0.1-0.1c0,0,0,0,0,0l0,0v0c0,0,0,0,0,0c0,0,0,0,0,0c0,0-0.1-0.1-0.1-0.1c0,0,0,0,0,0c0,0,0,0,0,0c0,0,0,0,0,0
		c0,0,0,0-0.1-0.1c0,0,0,0,0,0l0,0c-0.1-0.1-0.2-0.3-0.3-0.4c0,0,0,0,0,0c0,0,0,0,0,0c0,0,0,0,0,0c0,0-0.1-0.1-0.1-0.1c0,0,0,0,0,0
		c0,0,0,0,0,0c0,0,0,0,0,0l0,0c0,0,0,0,0,0l0,0c0,0,0,0,0,0c0-0.1-0.1-0.1-0.1-0.2c0,0,0,0,0-0.1c0,0,0,0,0,0c0,0,0,0,0,0
		c-0.1-0.2-0.2-0.5-0.4-0.7c0,0,0,0,0,0c-0.1-0.2-0.1-0.4-0.1-0.6c0-0.2,0-0.4,0.1-0.5c0,0,0,0,0-0.1l0,0l0,0c0-0.1,0.1-0.2,0.1-0.3
		c0,0,0,0,0,0c0,0,0-0.1,0-0.1l0,0c0,0,0,0,0,0c0,0,0,0,0-0.1c0.1-0.3,0.2-0.5,0.4-0.7c0.1-0.1,0.1-0.3,0.2-0.4c0,0,0,0,0,0l0,0
		c0,0,0,0,0,0l0,0c0.1-0.1,0.2-0.3,0.2-0.4c0,0,0,0,0,0c0,0,0,0,0,0s0,0,0,0l0,0c0-0.1,0.1-0.1,0.1-0.2c0,0,0,0,0,0c0,0,0,0,0,0l0,0
		l0,0c0,0,0,0,0,0c0,0,0,0,0,0l0,0c0,0,0,0,0,0l0,0l0,0c0.1-0.2,0.2-0.3,0.3-0.5c0,0,0,0,0,0l0,0c0,0,0,0,0,0s0,0,0,0l0,0
		c0,0,0,0,0,0c0,0,0,0,0,0c0,0,0,0,0,0s0,0,0,0l0,0c0.1-0.1,0.1-0.2,0.2-0.2c0,0,0,0,0,0c0,0,0,0,0,0c0,0,0,0,0,0
		c0.1-0.1,0.1-0.2,0.2-0.3c0,0,0,0,0,0l0,0c0,0,0,0,0,0l0,0c0,0,0,0,0-0.1c0,0,0,0,0,0l0,0c0,0,0,0,0,0s0,0,0,0l0,0c0,0,0,0,0.1-0.1
		c0,0,0,0,0,0l0,0c0,0,0,0,0,0s0,0,0,0l0,0c0,0,0,0,0.1-0.1c0,0,0,0,0,0c0,0,0,0,0,0s0,0,0,0l0,0c0.1-0.1,0.1-0.1,0.2-0.2
		c0,0,0,0,0,0l0,0c0,0,0,0,0,0l0,0l0,0c0.1-0.1,0.1-0.1,0.2-0.2c0,0,0,0,0,0c0,0,0,0,0,0c0,0,0,0,0,0l0,0c0,0,0.1-0.1,0.1-0.1
		c0,0,0,0,0,0c0,0,0,0,0,0c0,0,0,0,0,0c0,0,0.1-0.1,0.1-0.1c0,0,0,0,0,0l0,0c0,0,0,0,0,0c0,0,0,0,0,0l0,0c0,0,0.1-0.1,0.1-0.1
		c0,0,0,0,0,0c0,0,0,0,0,0c0,0,0,0,0,0c0.1-0.1,0.1-0.1,0.2-0.2c0,0,0,0,0,0l0,0c0.1-0.1,0.1-0.1,0.2-0.2c0,0,0,0,0,0l0,0
		c0.1-0.1,0.1-0.1,0.2-0.2c0,0,0,0,0,0c0,0,0,0,0,0c0,0,0,0,0,0c0,0,0,0,0,0c0,0,0,0,0,0l0,0c0,0,0,0,0,0c0,0,0,0,0,0
		c0.1-0.1,0.1-0.1,0.2-0.2C343.4,563.5,343.5,563.4,343.5,563.3z"/>
	<path class="st14" d="M358.7,571.9c-0.1,0.1-0.1,0.2-0.2,0.3c0,0,0,0,0,0c0,0,0,0,0,0c0,0,0,0,0,0l0,0c-0.1,0.1-0.1,0.2-0.2,0.3
		c0,0,0,0,0,0c0,0,0,0,0,0c0,0,0,0,0,0l0,0c-0.1,0.2-0.2,0.3-0.3,0.5c0,0,0,0,0,0c0,0,0,0,0,0c0,0,0,0,0,0c-0.1,0.1-0.1,0.2-0.2,0.3
		c0,0,0,0,0,0c0,0,0,0,0,0c0,0,0,0,0,0c-0.1,0.1-0.1,0.2-0.2,0.3c0,0,0,0,0,0c0,0,0,0,0,0s0,0,0,0l0,0c-0.1,0.1-0.1,0.2-0.2,0.3
		c0,0,0,0,0,0l0,0c0,0,0,0,0,0l0,0c-0.1,0.1-0.1,0.2-0.2,0.3c0,0,0,0,0,0c0,0,0,0,0,0c0,0,0,0,0,0l0,0c-0.1,0.2-0.2,0.3-0.3,0.5
		c0,0,0,0,0,0c0,0,0,0,0,0c0,0,0,0,0,0c-0.1,0.1-0.1,0.2-0.2,0.3c0,0,0,0,0,0c0,0,0,0,0,0c0,0,0,0,0,0c-0.1,0.1-0.1,0.2-0.2,0.3
		c0,0,0,0,0,0c0,0,0,0,0,0l0,0l0,0c-0.1,0.1-0.1,0.2-0.2,0.3c0,0,0,0,0,0c0,0,0,0,0,0s0,0,0,0l0,0c-0.1,0.1-0.1,0.2-0.2,0.3
		c0,0,0,0,0,0c0,0,0,0,0,0s0,0,0,0l0,0c-0.1,0.1-0.1,0.2-0.2,0.3c0,0,0,0,0,0l0,0c0,0,0,0,0,0c0,0,0,0,0,0l0,0
		c-0.1,0.1-0.1,0.2-0.2,0.1c0,0,0,0-0.1,0c-0.4-0.1-0.8-0.3-1.1-0.4c0,0,0,0-0.1,0c-0.4-0.1-0.8-0.3-1.1-0.4c0,0,0,0-0.1,0
		c-0.4-0.1-0.8-0.3-1.1-0.4c0,0,0,0-0.1,0c-0.4-0.1-0.8-0.3-1.1-0.4c0,0,0,0-0.1,0c-0.2-0.1-0.3-0.1-0.5-0.2c0,0-0.1,0,0-0.1
		c0,0,0,0,0.1,0c0.2-0.1,0.3-0.1,0.5-0.2c0.2-0.1,0.4-0.2,0.7-0.4c0,0,0.1-0.1,0.1-0.1c0,0,0,0,0,0l0,0l0,0c0,0,0,0,0,0c0,0,0,0,0,0
		c0,0,0,0,0.1-0.1c0,0,0,0,0,0l0,0l0,0c0,0,0,0,0,0c0,0,0,0,0,0c0.1-0.1,0.2-0.1,0.2-0.2c0.1-0.1,0.2-0.3,0.1-0.5
		c0-0.1-0.1-0.3-0.1-0.4c0,0,0,0,0,0l0,0c0,0,0,0,0-0.1c0,0,0,0,0,0c0-0.1-0.1-0.2-0.1-0.4c-0.1-0.2-0.2-0.4-0.3-0.6c0,0,0,0,0,0
		c0,0,0,0,0,0c0,0,0,0,0,0c-0.1-0.1-0.1-0.2-0.2-0.3c0,0,0,0,0,0l0,0c0,0,0,0,0,0c0-0.1-0.1-0.2-0.1-0.2c0,0,0,0,0,0c0,0,0,0,0,0
		c0,0,0,0,0,0c-0.1-0.1-0.1-0.2-0.2-0.3c0,0,0,0,0,0c0,0,0,0,0,0c0,0,0,0,0,0c0,0,0,0,0,0c0,0,0,0,0,0c0,0,0,0,0,0c0,0,0,0,0,0
		c0,0-0.1-0.1-0.1-0.1c0,0,0,0,0,0c0,0,0,0,0,0c0,0,0,0,0,0c0,0,0,0,0-0.1c0,0,0,0,0,0l0,0c0,0,0,0,0,0c0,0,0,0,0,0c0,0,0,0,0-0.1
		c0,0,0,0,0,0c0,0,0,0,0,0c0,0,0,0,0,0c0,0,0,0,0-0.1c0,0,0,0,0,0c0,0,0,0,0,0c0,0,0,0,0,0c0,0,0,0-0.1-0.1c0,0,0,0,0,0l0,0v0
		c0,0,0,0,0,0c0,0,0,0,0,0c0,0,0,0,0,0c0,0,0,0,0,0l0,0c0,0,0,0,0,0c0,0,0,0,0,0c0,0-0.1-0.1-0.1-0.1c0,0,0,0,0,0l0,0c0,0,0,0,0,0
		c0,0,0,0,0,0c-0.1-0.1,0-0.1,0-0.2c0,0,0,0,0,0c0,0,0,0,0,0c0,0,0,0,0,0l0,0c0,0,0.1-0.1,0.1-0.1c0,0,0,0,0,0c0,0,0,0,0,0
		c0,0,0,0,0,0c0.1-0.1,0.1-0.1,0.2-0.2c0,0,0,0,0,0c0,0,0,0,0,0c0,0,0,0,0,0l0,0c0,0,0,0,0,0c0.1-0.1,0.2-0.2,0.4-0.4c0,0,0,0,0,0
		c0,0,0,0,0,0c0,0,0,0,0,0c0,0,0,0,0,0c0,0,0,0,0,0c0.1-0.1,0.1-0.1,0.2-0.2c0.1-0.1,0.2-0.2,0.3-0.3c0,0,0,0,0,0c0,0,0,0,0,0
		c0,0,0,0,0,0c0,0,0,0,0,0c0,0,0,0,0,0c0,0,0.1-0.1,0.1-0.1c0,0,0,0,0,0l0,0c0,0,0,0,0,0c0,0,0,0,0,0c0.1,0,0.1-0.1,0.2-0.1
		c0,0,0,0,0,0l0,0c0,0,0,0,0,0c0,0,0,0,0,0c0.1-0.1,0.2-0.2,0.3-0.2c0,0,0,0,0,0l0,0l0,0c0,0,0,0,0,0c0,0,0,0,0,0
		c0.1,0,0.1-0.1,0.2-0.1c0,0,0,0,0,0l0,0l0,0c0,0,0,0,0,0c0,0,0,0,0,0c0,0,0,0,0.1,0c0.2-0.1,0.4-0.2,0.6-0.3c0,0,0,0,0.1,0
		c0.1,0,0.1,0,0.2,0c0,0,0,0,0.1,0c0.2,0,0.4,0,0.5-0.1c0.1,0,0.2,0,0.3,0l0,0c0.1,0,0.2,0,0.3,0c0.1,0,0.3,0,0.4,0.1
		c0.2,0.1,0.4,0.1,0.5,0.2c0.3,0.1,0.6,0.3,0.9,0.4c0,0,0,0,0,0l0,0c0,0,0,0,0,0c0,0,0.1,0,0.1,0.1c0.2,0.1,0.3,0.2,0.4,0.4
		c0,0,0,0,0,0l0,0l0,0l0,0c0,0,0,0,0,0c0,0,0.1,0.1,0.1,0.1c0,0,0,0,0,0l0,0l0,0c0,0,0,0,0,0c0,0.1,0.1,0.2,0.1,0.3l0,0l0,0
		c0.1,0.3,0.2,0.5,0.2,0.8c0.1,0.2,0.1,0.5,0.1,0.7c0,0.2,0.1,0.4,0.1,0.6c0,0.4,0.1,0.8,0.1,1.1c0,0,0,0,0.1,0c0.1,0,0.1,0,0.2,0
		c0,0,0,0,0.1,0c0.1,0,0.3-0.1,0.4-0.1c0,0,0,0,0.1,0c0,0,0,0,0.1,0c0,0,0,0,0.1,0c0.1,0,0.3-0.1,0.4-0.1c0,0,0,0,0.1,0
		c0,0,0,0,0.1,0c0,0,0,0,0.1,0c0.1,0,0.2,0,0.3-0.1c0,0,0,0,0,0l0,0c0,0,0,0,0,0c0,0-0.1,0.1-0.1,0.1c0,0,0,0,0,0c0,0,0,0,0,0
		c0,0,0,0,0,0c-0.1,0.1-0.1,0.2-0.2,0.3c0,0,0,0,0,0c0,0,0,0,0,0c0,0,0,0,0,0l0,0C358.9,571.7,358.8,571.7,358.7,571.9
		C358.8,571.8,358.8,571.8,358.7,571.9C358.7,571.9,358.7,571.9,358.7,571.9C358.7,571.9,358.7,571.9,358.7,571.9L358.7,571.9z"/>
	<path class="st13" d="M352.4,592.7C352.3,592.7,352.3,592.7,352.4,592.7c-0.2,0-0.2,0-0.3-0.1c0,0,0,0-0.1,0c-0.1,0-0.1,0-0.2-0.1
		c0,0,0,0-0.1,0c-0.1,0-0.1,0-0.2-0.1c0,0,0,0-0.1,0c0,0,0,0,0,0c0,0,0,0-0.1,0c0,0,0,0,0,0c0,0,0,0-0.1,0c0,0,0,0,0,0
		c0,0,0,0-0.1,0c0,0,0,0,0,0c0,0,0,0-0.1,0c-0.1,0-0.1-0.1-0.2-0.1c0,0,0,0,0,0c0,0,0,0,0,0c0,0,0,0,0,0c0,0,0,0-0.1,0c0,0,0,0,0,0
		c0,0,0,0,0,0c0,0,0,0,0,0c0,0-0.1-0.1-0.1-0.1c0,0,0,0,0,0c0,0,0,0,0,0c0,0,0,0,0,0c0,0,0,0,0,0c0,0,0,0,0,0c0,0,0,0,0,0
		c0,0,0,0,0,0c0,0,0,0,0,0c0,0,0,0,0,0c0,0,0,0,0,0c0,0,0,0,0,0c0,0,0,0,0,0c0,0,0,0,0,0c0,0,0,0,0,0c0,0,0,0,0,0
		c0,0-0.1-0.1-0.1-0.1c0,0,0,0,0,0c0,0,0,0,0,0c0,0,0,0,0,0c0,0-0.1-0.1-0.1-0.1c0,0,0,0,0,0c0,0,0,0,0,0c0,0,0,0,0,0c0,0,0,0-0.1,0
		c0,0,0,0,0,0c0,0,0,0,0,0c0,0,0,0,0,0c-0.1-0.1-0.1-0.1-0.2-0.2c0,0,0,0,0,0c0,0,0,0,0,0c0,0,0,0,0,0c0,0-0.1-0.1-0.1-0.1
		c0,0,0,0,0,0c0,0,0,0,0,0c0,0,0,0,0,0c0,0-0.1-0.1-0.1-0.1c0,0,0,0,0,0l0,0c0,0,0,0,0,0c0,0,0,0,0,0l0,0c0,0-0.1-0.1-0.1-0.1
		c0,0,0,0,0,0c0,0,0,0,0,0c0,0,0,0,0,0c0,0-0.1-0.1-0.2-0.1c-0.1,0.1-0.1,0.2-0.1,0.2c0,0,0,0,0,0l0,0c0,0,0,0,0,0.1
		c-0.1,0.1-0.1,0.2-0.2,0.3c0,0,0,0,0,0l0,0c0,0,0,0,0,0.1c-0.1,0.1-0.1,0.2-0.2,0.3c0,0,0,0,0,0l0,0c0,0,0,0,0,0.1
		c-0.1,0.1-0.1,0.2-0.2,0.3c0,0,0,0,0,0l0,0c0,0,0,0,0,0.1c0,0-0.1,0.1-0.1,0.2c0-0.2-0.1-0.3-0.1-0.5c0-0.3-0.1-0.6-0.1-0.9
		c0-0.2-0.1-0.4-0.1-0.6c0-0.2-0.1-0.4-0.1-0.6c0-0.2-0.1-0.4-0.1-0.6c0-0.2-0.1-0.4-0.1-0.6c0-0.2,0-0.3-0.1-0.5
		c0-0.2-0.1-0.4-0.1-0.6c0-0.2,0-0.3-0.1-0.5c0-0.3-0.1-0.6-0.1-0.8c0-0.2,0-0.4-0.1-0.5c0,0,0,0,0,0c0.1-0.1,0.3-0.1,0.4-0.2
		c0,0,0,0,0.1,0c0.1-0.1,0.2-0.1,0.4-0.2c0.1,0,0.2-0.1,0.3-0.1c0,0,0,0,0,0c0,0,0,0,0,0c0,0,0,0,0.1,0c0,0,0,0,0,0c0,0,0,0,0.1,0
		c0.2-0.1,0.4-0.2,0.5-0.3c0.5-0.2,0.9-0.4,1.4-0.6c0.3-0.1,0.5-0.3,0.8-0.4c0.3-0.1,0.5-0.3,0.8-0.4c0.1-0.1,0.2-0.1,0.4-0.2
		c0,0,0,0,0.1,0c0,0.1-0.1,0.1-0.1,0.2c0,0,0,0,0,0.1c0,0,0,0,0,0c0,0,0,0,0,0.1l0,0c0,0,0,0,0,0c0,0,0,0,0,0c0,0,0,0,0,0
		c0,0,0,0,0,0.1c0,0,0,0,0,0.1l0,0c0,0,0,0,0,0c0,0.1-0.1,0.2-0.1,0.3c0,0,0,0,0,0c0,0,0,0.1,0,0.1c0,0-0.1,0,0,0.1
		c0,0.1,0,0.2-0.1,0.4c0,0,0,0.1,0,0.1c0,0.1,0,0.3,0,0.4c0,0.2,0.1,0.4,0.3,0.5c0,0,0,0,0,0l0,0c0,0,0,0,0,0c0,0,0,0,0,0l0,0
		c0.1,0.1,0.3,0.2,0.4,0.3c0.2,0.1,0.4,0.2,0.7,0.3c0.4,0.1,0.9,0.2,1.3,0.3c0.2,0,0.5,0.1,0.7,0.1c0.2,0,0.3,0,0.5,0.1
		c0.2,0,0.4,0,0.6,0.1c0,0,0,0.1,0,0.1c0,0.1,0,0.3,0,0.4c0,0.7,0,1.4,0,2.1c0,0.2-0.1,0.3-0.1,0.5c0,0.1,0,0.2-0.1,0.4
		c-0.2,1-0.9,1.8-1.8,2.2c-0.4,0.2-0.8,0.3-1.1,0.4c-0.1,0-0.3,0.1-0.4,0.1C352.6,592.7,352.5,592.7,352.4,592.7z"/>
	<path class="st15" d="M695.3,528.7c0,0.1-0.1,0.2-0.1,0.2C695,528.7,695.2,528.7,695.3,528.7z"/>
	<path class="st15" d="M696.1,529.5c0.1,0,0.1,0.1,0.2,0.1C696.3,529.6,696.2,529.5,696.1,529.5z"/>
	<path class="st15" d="M696.4,529.6c0,0,0.1,0.1,0.1,0.1C696.5,529.7,696.4,529.7,696.4,529.6z"/>
	<circle class="st4" cx="600.9" cy="339" r="23.8"/>
	<path class="st4" d="M598,315.4c-3.1,4.4-2.7,9.5-2.7,9.5c3.4,3.7,6.8,2.4,6.8,2.4c-0.4,4.4,0.9,8.5,1.7,9.1c0.9,0.6,5.5,5,5.5,5
		c-1.9,3-7,2.9-7,2.9c-3.3,0.7-1.5,3.4-1.5,3.4c2-0.2,4.2,1.4,4.2,1.4c2.4,1.6,4.9-0.9,4.9-0.9c4.6,0.7,5.6-0.5,5.6-0.5
		c0.4-4.2,4.1-5.1,4.1-5.1c2.7-0.7,5.2-3.6,5.2-3.6"/>
	<path class="st4" d="M577.6,334.1c3.6,0.2,5.5,2.3,5.5,2.3c-0.4,4.6,0.6,4.9,0.6,4.9c1.6-0.3,2.9-1.3,2.9-1.3
		c1.7,0.3,3.6,3.2,3.6,3.2c0.3,2.1-0.6,4.3-0.6,4.3c2,3.3,2.1,4.4,2.1,4.4c-0.1,2.7-0.4,3.6-0.4,3.6c-2.3,2.5-3.3,3.4-3.3,3.4"/>
</g>
</svg>
